<svg width="84" height="97" viewBox="0 0 84 97" fill="none" xmlns="http://www.w3.org/2000/svg">
<path fill-rule="evenodd" clip-rule="evenodd" d="M41.9741 89.1533C65.1343 89.1533 83.9481 70.3394 83.9481 47.1792L3.66949e-06 47.1792C1.64476e-06 70.3394 18.8138 89.1533 41.9741 89.1533Z" fill="#E9D2FD"/>
<path fill-rule="evenodd" clip-rule="evenodd" d="M28.094 51.2681V89.1533H55.9235V58.598L48.5284 51.2681H28.094Z" fill="#A142F4"/>
<path fill-rule="evenodd" clip-rule="evenodd" d="M32.8937 73.7146C32.6981 73.7146 32.5024 73.907 32.5024 74.1026C32.5024 74.2982 32.6981 74.4906 32.8937 74.4906H51.1239C51.3163 74.4906 51.4467 74.2982 51.4467 74.1026C51.4467 73.907 51.3163 73.7146 51.1239 73.7146H32.8937Z" fill="#7627BB"/>
<path fill-rule="evenodd" clip-rule="evenodd" d="M32.8937 78.1263C32.6981 78.1263 32.5024 78.2534 32.5024 78.4491C32.5024 78.7099 32.6981 78.8371 32.8937 78.8371H51.1239C51.3163 78.8371 51.4467 78.7099 51.4467 78.4491C51.4467 78.2534 51.3163 78.1263 51.1239 78.1263H32.8937Z" fill="#7627BB"/>
<path fill-rule="evenodd" clip-rule="evenodd" d="M55.9238 79.2284C51.1893 79.2284 47.3614 83.0564 47.3614 87.7908C47.3614 92.5252 51.1893 96.3532 55.9238 96.3532C60.5963 96.3532 64.421 92.5252 64.421 87.7908C64.421 83.0564 60.5963 79.2284 55.9238 79.2284Z" fill="white"/>
<path fill-rule="evenodd" clip-rule="evenodd" d="M55.9238 80.1349C51.6426 80.1349 48.2678 83.5748 48.2678 87.7908C48.2678 92.0068 51.6426 95.4468 55.9238 95.4468C60.1398 95.4468 63.5798 92.0068 63.5798 87.7908C63.5798 83.5748 60.1398 80.1349 55.9238 80.1349Z" fill="#7627BB"/>
<path fill-rule="evenodd" clip-rule="evenodd" d="M52.3118 56C55.116 56 57.5956 57.0463 59.5536 59.0043C61.5772 61.0247 62.5546 63.5042 62.5546 66.3117C62.5546 67.4859 62.3611 68.5945 62.0332 69.6408C61.7084 70.487 61.3148 71.2708 60.7934 72.0547L70.5836 81.7761L67.7105 84.6492L57.9891 74.859C57.3364 75.3181 56.6182 75.7084 55.7687 76.0331C54.7257 76.4267 53.5515 76.6202 52.3774 76.6202C49.5042 76.6202 47.0247 75.5773 45.0011 73.5536C42.9807 71.5988 42 69.116 42 66.3117C42 63.5042 42.9807 61.0247 45.0011 59.0043C47.0247 57.0463 49.4387 56 52.3118 56Z" fill="white"/>
<path fill-rule="evenodd" clip-rule="evenodd" d="M52.3774 59.3946C50.4193 59.3946 48.7859 60.1129 47.4182 61.4839C46.0473 62.8548 45.3946 64.4193 45.3946 66.3774C45.3946 68.3354 46.0473 69.8999 47.4182 71.2709C48.7859 72.6418 50.4849 73.3601 52.3774 73.3601C54.2698 73.3601 55.8999 72.6418 57.2709 71.2709C58.6418 69.9655 59.2945 68.2698 59.2945 66.3774C59.2945 64.4849 58.6418 62.7892 57.2709 61.4839C55.8999 60.1129 54.3354 59.3946 52.3774 59.3946ZM52.3774 56.9807C54.9881 56.9807 57.2052 57.8925 59.0321 59.7226C60.8589 61.5495 61.774 63.7666 61.774 66.3774C61.774 67.4203 61.5772 68.4666 61.2525 69.444C60.9246 70.4214 60.4031 71.3364 59.6848 72.1859L69.4095 81.8417L67.7761 83.4751L58.1203 73.7504C57.402 74.4031 56.487 74.9246 55.5096 75.2526C54.5289 75.6428 53.4859 75.774 52.4429 75.774C49.7666 75.774 47.5462 74.859 45.6537 73.0321C43.8268 71.2053 42.9151 68.9881 42.9151 66.3774C42.9151 63.7666 43.8268 61.5495 45.6537 59.7226C47.5462 57.8925 49.7666 56.9807 52.3774 56.9807Z" fill="#7627BB"/>
<path fill-rule="evenodd" clip-rule="evenodd" d="M52.9078 83.8488C52.6632 83.8488 52.422 83.9303 52.2263 84.0933C51.8383 84.4814 51.8383 85.065 52.2263 85.4563L54.5609 87.7909L52.2263 90.1255C51.8383 90.5168 51.8383 91.1004 52.2263 91.4884C52.422 91.6515 52.6632 91.733 52.9078 91.733C53.1491 91.733 53.3936 91.6515 53.5893 91.4884L55.9239 89.1538L58.2585 91.4884C58.4215 91.6515 58.666 91.733 58.9074 91.733C59.1519 91.733 59.3932 91.6515 59.5562 91.4884C59.9475 91.1004 59.9475 90.5168 59.5562 90.1255L57.2216 87.7909L59.5562 85.4563C59.9475 85.065 59.9475 84.4814 59.5562 84.0933C59.3932 83.9303 59.1519 83.8488 58.9074 83.8488C58.666 83.8488 58.4215 83.9303 58.2585 84.0933L55.9239 86.4279L53.5893 84.0933C53.3936 83.9303 53.1491 83.8488 52.9078 83.8488Z" fill="white"/>
<path fill-rule="evenodd" clip-rule="evenodd" d="M41.9426 3.18158C18.7637 3.18158 0 22.0106 0 45.1895H83.9505C83.9505 22.0106 65.1868 3.18158 41.9426 3.18158Z" fill="#E6F4EA"/>
<path fill-rule="evenodd" clip-rule="evenodd" d="M28.0468 7.27356V45.1893H55.9019V14.6094L48.4976 7.27356H28.0468Z" fill="#34A853"/>
<path fill-rule="evenodd" clip-rule="evenodd" d="M41.4877 16.6225C41.2266 16.6225 41.0961 16.815 41.0961 17.0108C41.0961 17.2066 41.2266 17.4024 41.4877 17.4024H47.913C48.1088 17.4024 48.3046 17.2066 48.3046 17.0108C48.3046 16.815 48.1088 16.6225 47.913 16.6225H41.4877Z" fill="#0D652D"/>
<path fill-rule="evenodd" clip-rule="evenodd" d="M32.8501 21.0375C32.6576 21.0375 32.4618 21.1647 32.4618 21.3605C32.4618 21.5563 32.6576 21.7521 32.8501 21.7521H47.9133C48.1091 21.7521 48.3049 21.5563 48.3049 21.3605C48.3049 21.1647 48.1091 21.0375 47.9133 21.0375H32.8501Z" fill="#0D652D"/>
<path fill-rule="evenodd" clip-rule="evenodd" d="M32.8501 25.3873C32.6576 25.3873 32.4618 25.5798 32.4618 25.7756C32.4618 25.9714 32.6576 26.1019 32.8501 26.1019H51.095C51.2908 26.1019 51.4866 25.9714 51.4866 25.7756C51.4866 25.5798 51.2908 25.3873 51.095 25.3873H32.8501Z" fill="#0D652D"/>
<path fill-rule="evenodd" clip-rule="evenodd" d="M32.8501 29.7371C32.6576 29.7371 32.4618 29.9296 32.4618 30.1254C32.4618 30.3212 32.6576 30.5137 32.8501 30.5137H51.095C51.2908 30.5137 51.4866 30.3212 51.4866 30.1254C51.4866 29.9296 51.2908 29.7371 51.095 29.7371H32.8501Z" fill="#0D652D"/>
<path fill-rule="evenodd" clip-rule="evenodd" d="M32.8501 34.1521C32.6576 34.1521 32.4618 34.2794 32.4618 34.4752C32.4618 34.7362 32.6576 34.8635 32.8501 34.8635H51.095C51.2908 34.8635 51.4866 34.7362 51.4866 34.4752C51.4866 34.2794 51.2908 34.1521 51.095 34.1521H32.8501Z" fill="#0D652D"/>
<path fill-rule="evenodd" clip-rule="evenodd" d="M55.9012 35.255C51.1597 35.255 47.3287 39.0861 47.3287 43.8243C47.3287 48.5626 51.1597 52.3936 55.9012 52.3936C60.5742 52.3936 64.4705 48.5626 64.4705 43.8243C64.4705 39.0861 60.5742 35.255 55.9012 35.255Z" fill="white"/>
<path fill-rule="evenodd" clip-rule="evenodd" d="M55.9012 36.1622C51.6786 36.1622 48.2391 39.6049 48.2391 43.8243C48.2391 48.0437 51.6786 51.4864 55.9012 51.4864C60.1206 51.4864 63.5601 48.0437 63.5601 43.8243C63.5601 39.6049 60.1206 36.1622 55.9012 36.1622Z" fill="#0D652D"/>
<path fill-rule="evenodd" clip-rule="evenodd" d="M30.126 0C27.3326 0 24.8656 1.04097 22.9174 2.98914C20.9073 4.9993 19.9316 7.46632 19.9316 10.2597C19.9316 11.4279 20.1274 12.5309 20.5157 13.5719C20.7767 14.4138 21.1651 15.1937 21.684 15.9736L11.9464 25.6459L14.8018 28.5045L24.4773 18.7637C25.1266 19.2206 25.8413 19.6089 26.6832 19.932C27.7242 20.3235 28.8925 20.5161 30.0607 20.5161C32.9813 20.5161 35.3831 19.4784 37.3965 17.4649C39.4099 15.52 40.3824 13.0498 40.3824 10.2597C40.3824 7.46632 39.4099 4.9993 37.3965 2.98914C35.3831 1.04097 32.9813 0 30.126 0Z" fill="white"/>
<path fill-rule="evenodd" clip-rule="evenodd" d="M30.0607 3.37744C32.0089 3.37744 33.6307 4.09209 34.9947 5.45613C36.3588 6.82018 37.0081 8.37674 37.0081 10.3249C37.0081 12.2731 36.3588 13.8296 34.9947 15.1937C33.6307 16.5577 32.0089 17.2724 30.0607 17.2724C28.1778 17.2724 26.556 16.5577 25.1919 15.1937C23.8931 13.8949 23.1785 12.2078 23.1785 10.3249C23.1785 8.442 23.8931 6.7549 25.1919 5.45613C26.556 4.09209 28.1778 3.37744 30.0607 3.37744ZM30.0607 0.975677C27.4631 0.975677 25.2571 1.88286 23.4363 3.70377C21.6187 5.52139 20.7114 7.72736 20.7114 10.3249C20.7114 11.3626 20.9072 12.4036 21.2303 13.3761C21.6187 14.3485 22.0755 15.2589 22.7902 16.1041L13.1146 25.7112L14.7365 27.3362L24.3467 17.6607C25.0613 18.3101 25.9686 18.8289 26.9443 19.1553C27.9167 19.5436 28.9577 19.6741 30.0607 19.6741C32.6582 19.6741 34.9294 18.7637 36.7471 16.946C38.5647 15.1284 39.4752 12.9225 39.4752 10.3249C39.4752 7.72736 38.5647 5.52139 36.7471 3.70377C34.9294 1.88286 32.6582 0.975677 30.0607 0.975677Z" fill="#0D652D"/>
<path fill-rule="evenodd" clip-rule="evenodd" d="M30.0604 3.1163C28.1122 3.1163 26.4251 3.83095 24.9958 5.26025C23.6317 6.68956 22.9171 8.3114 22.9171 10.3248C22.9171 12.273 23.6317 13.9601 24.9958 15.3894C26.4251 16.8154 28.0469 17.5301 30.0604 17.5301C32.0738 17.5301 33.7609 16.8154 35.1902 15.3894C36.5542 13.9601 37.2656 12.273 37.2656 10.3248C37.2656 8.37666 36.5542 6.68956 35.1902 5.26025C33.7609 3.83095 32.0738 3.1163 30.0604 3.1163Z" fill="white"/>
<path fill-rule="evenodd" clip-rule="evenodd" d="M59.2427 40.0747C59.1774 40.0747 59.1122 40.091 59.0828 40.1237L54.6676 44.5388L52.7194 42.5907C52.6868 42.5254 52.6215 42.4928 52.5563 42.4928C52.491 42.4928 52.4258 42.5254 52.3931 42.5907L51.1596 43.8242C51.0291 43.8895 51.0291 44.0852 51.1596 44.1472L54.4718 47.5247C54.5371 47.5247 54.6024 47.59 54.6676 47.59C54.7296 47.59 54.7949 47.5247 54.8602 47.5247L60.6394 41.7455C60.7047 41.6182 60.7047 41.4877 60.6394 41.3572L59.4059 40.1237C59.3732 40.091 59.308 40.0747 59.2427 40.0747Z" fill="white"/>
</svg>
